<mxfile host="app.diagrams.net" modified="2021-08-30T07:34:37.947Z" agent="5.0 (X11; Linux x86_64) AppleWebKit/537.36 (KHTML, like Gecko) Chrome/92.0.4515.159 Safari/537.36" etag="NXWoMl7ewfKH6KUFoeUA" version="15.0.3" type="github">
  <diagram name="Page-1" id="9361dd3d-8414-5efd-6122-117bd74ce7a7">
    <mxGraphModel dx="1422" dy="5161" grid="1" gridSize="10" guides="1" tooltips="1" connect="1" arrows="1" fold="1" page="0" pageScale="1.5" pageWidth="826" pageHeight="1169" background="none" math="0" shadow="0">
      <root>
        <mxCell id="0" />
        <mxCell id="1" parent="0" />
        <mxCell id="ok139ALbJn9GpQchz6-Z-90" value="APP" style="swimlane;whiteSpace=wrap" vertex="1" parent="1">
          <mxGeometry x="300" y="-4270" width="280" height="760" as="geometry" />
        </mxCell>
        <mxCell id="ok139ALbJn9GpQchz6-Z-91" value="" style="ellipse;shape=startState;fillColor=#000000;strokeColor=#ff0000;" vertex="1" parent="ok139ALbJn9GpQchz6-Z-90">
          <mxGeometry x="100" y="40" width="30" height="30" as="geometry" />
        </mxCell>
        <mxCell id="ok139ALbJn9GpQchz6-Z-92" value="" style="edgeStyle=elbowEdgeStyle;elbow=horizontal;verticalAlign=bottom;endArrow=open;endSize=8;strokeColor=#FF0000;endFill=1;rounded=0" edge="1" parent="ok139ALbJn9GpQchz6-Z-90" source="ok139ALbJn9GpQchz6-Z-91" target="ok139ALbJn9GpQchz6-Z-93">
          <mxGeometry x="100" y="40" as="geometry">
            <mxPoint x="115" y="110" as="targetPoint" />
          </mxGeometry>
        </mxCell>
        <mxCell id="ok139ALbJn9GpQchz6-Z-93" value="选择币种" style="" vertex="1" parent="ok139ALbJn9GpQchz6-Z-90">
          <mxGeometry x="60" y="110" width="110" height="50" as="geometry" />
        </mxCell>
        <mxCell id="ok139ALbJn9GpQchz6-Z-94" value="选择网络" style="" vertex="1" parent="ok139ALbJn9GpQchz6-Z-90">
          <mxGeometry x="60" y="180" width="110" height="50" as="geometry" />
        </mxCell>
        <mxCell id="ok139ALbJn9GpQchz6-Z-95" value="" style="endArrow=open;strokeColor=#FF0000;endFill=1;rounded=0;edgeStyle=orthogonalEdgeStyle;" edge="1" parent="ok139ALbJn9GpQchz6-Z-90" source="ok139ALbJn9GpQchz6-Z-93" target="ok139ALbJn9GpQchz6-Z-94">
          <mxGeometry relative="1" as="geometry" />
        </mxCell>
        <mxCell id="ok139ALbJn9GpQchz6-Z-96" value="判断余额" style="" vertex="1" parent="ok139ALbJn9GpQchz6-Z-90">
          <mxGeometry x="60" y="260" width="110" height="50" as="geometry" />
        </mxCell>
        <mxCell id="ok139ALbJn9GpQchz6-Z-97" value="" style="endArrow=open;strokeColor=#FF0000;endFill=1;rounded=0;edgeStyle=orthogonalEdgeStyle;" edge="1" parent="ok139ALbJn9GpQchz6-Z-90" source="ok139ALbJn9GpQchz6-Z-94" target="ok139ALbJn9GpQchz6-Z-96">
          <mxGeometry relative="1" as="geometry" />
        </mxCell>
        <mxCell id="ok139ALbJn9GpQchz6-Z-137" value="发起支付" style="" vertex="1" parent="ok139ALbJn9GpQchz6-Z-90">
          <mxGeometry x="60" y="340" width="110" height="50" as="geometry" />
        </mxCell>
        <mxCell id="ok139ALbJn9GpQchz6-Z-138" value="等待回调" style="" vertex="1" parent="ok139ALbJn9GpQchz6-Z-90">
          <mxGeometry x="60" y="420" width="110" height="50" as="geometry" />
        </mxCell>
        <mxCell id="ok139ALbJn9GpQchz6-Z-145" value="结束" style="rhombus;whiteSpace=wrap;html=1;" vertex="1" parent="ok139ALbJn9GpQchz6-Z-90">
          <mxGeometry x="65" y="500" width="100" height="60" as="geometry" />
        </mxCell>
        <mxCell id="ok139ALbJn9GpQchz6-Z-150" value="" style="endArrow=open;strokeColor=#FF0000;endFill=1;rounded=0;edgeStyle=orthogonalEdgeStyle;" edge="1" parent="ok139ALbJn9GpQchz6-Z-90">
          <mxGeometry relative="1" as="geometry">
            <mxPoint x="114.57999999999993" y="470" as="sourcePoint" />
            <mxPoint x="114.57999999999993" y="500" as="targetPoint" />
          </mxGeometry>
        </mxCell>
        <mxCell id="ok139ALbJn9GpQchz6-Z-170" value="" style="endArrow=open;strokeColor=#FF0000;endFill=1;rounded=0;edgeStyle=orthogonalEdgeStyle;" edge="1" parent="ok139ALbJn9GpQchz6-Z-90">
          <mxGeometry relative="1" as="geometry">
            <mxPoint x="114.57999999999998" y="310" as="sourcePoint" />
            <mxPoint x="114.57999999999998" y="340" as="targetPoint" />
          </mxGeometry>
        </mxCell>
        <mxCell id="ok139ALbJn9GpQchz6-Z-99" value="支付中间件" style="swimlane;whiteSpace=wrap" vertex="1" parent="1">
          <mxGeometry x="580" y="-4270" width="410" height="760" as="geometry" />
        </mxCell>
        <mxCell id="ok139ALbJn9GpQchz6-Z-102" value="调用支付API，&#xa;存入本地订单信息" style="" vertex="1" parent="ok139ALbJn9GpQchz6-Z-99">
          <mxGeometry x="30" y="50" width="110" height="50" as="geometry" />
        </mxCell>
        <mxCell id="ok139ALbJn9GpQchz6-Z-103" value="同时加入30分钟&#xa;延时检查队列" style="" vertex="1" parent="ok139ALbJn9GpQchz6-Z-99">
          <mxGeometry x="20" y="175" width="110" height="50" as="geometry" />
        </mxCell>
        <mxCell id="ok139ALbJn9GpQchz6-Z-104" value="" style="endArrow=open;strokeColor=#FF0000;endFill=1;rounded=0;edgeStyle=orthogonalEdgeStyle;" edge="1" parent="ok139ALbJn9GpQchz6-Z-99" source="ok139ALbJn9GpQchz6-Z-102" target="ok139ALbJn9GpQchz6-Z-103">
          <mxGeometry relative="1" as="geometry">
            <Array as="points">
              <mxPoint x="85" y="190" />
              <mxPoint x="85" y="190" />
            </Array>
          </mxGeometry>
        </mxCell>
        <mxCell id="ok139ALbJn9GpQchz6-Z-143" value="" style="endArrow=open;strokeColor=#FF0000;endFill=1;rounded=0;edgeStyle=orthogonalEdgeStyle;entryX=0;entryY=0.25;entryDx=0;entryDy=0;" edge="1" parent="ok139ALbJn9GpQchz6-Z-99" target="ok139ALbJn9GpQchz6-Z-126">
          <mxGeometry relative="1" as="geometry">
            <mxPoint x="140" y="74.58" as="sourcePoint" />
            <mxPoint x="260" y="74.58" as="targetPoint" />
            <Array as="points">
              <mxPoint x="140" y="73" />
              <mxPoint x="225" y="73" />
            </Array>
          </mxGeometry>
        </mxCell>
        <mxCell id="ok139ALbJn9GpQchz6-Z-159" value="" style="endArrow=open;strokeColor=#FF0000;endFill=1;rounded=0;edgeStyle=orthogonalEdgeStyle;exitX=0;exitY=0.5;exitDx=0;exitDy=0;" edge="1" parent="ok139ALbJn9GpQchz6-Z-99" source="ok139ALbJn9GpQchz6-Z-168">
          <mxGeometry relative="1" as="geometry">
            <mxPoint x="120" y="490" as="sourcePoint" />
            <mxPoint x="55" y="230" as="targetPoint" />
            <Array as="points">
              <mxPoint x="55" y="565" />
            </Array>
          </mxGeometry>
        </mxCell>
        <mxCell id="ok139ALbJn9GpQchz6-Z-160" value="&lt;p&gt;&lt;br&gt;&lt;/p&gt;&lt;p&gt;&lt;font style=&quot;font-size: 12px&quot;&gt;删除对应队列数据&lt;/font&gt;&lt;/p&gt;" style="edgeLabel;html=1;align=center;verticalAlign=middle;resizable=0;points=[];labelBackgroundColor=none;" vertex="1" connectable="0" parent="ok139ALbJn9GpQchz6-Z-159">
          <mxGeometry x="0.2351" y="-1" relative="1" as="geometry">
            <mxPoint x="4" y="11" as="offset" />
          </mxGeometry>
        </mxCell>
        <mxCell id="ok139ALbJn9GpQchz6-Z-161" value="" style="endArrow=open;strokeColor=#FF0000;endFill=1;rounded=0;edgeStyle=orthogonalEdgeStyle;exitX=0.75;exitY=0;exitDx=0;exitDy=0;entryX=0;entryY=0.5;entryDx=0;entryDy=0;" edge="1" parent="ok139ALbJn9GpQchz6-Z-99" source="ok139ALbJn9GpQchz6-Z-103" target="ok139ALbJn9GpQchz6-Z-200">
          <mxGeometry relative="1" as="geometry">
            <mxPoint x="95" y="110" as="sourcePoint" />
            <mxPoint x="130" y="120" as="targetPoint" />
            <Array as="points">
              <mxPoint x="95" y="175" />
              <mxPoint x="95" y="130" />
              <mxPoint x="130" y="130" />
            </Array>
          </mxGeometry>
        </mxCell>
        <mxCell id="ok139ALbJn9GpQchz6-Z-164" value="判断是否是内部订单" style="rhombus;whiteSpace=wrap;html=1;fillColor=#ffffc0;strokeColor=#ff0000;labelBackgroundColor=none;" vertex="1" parent="ok139ALbJn9GpQchz6-Z-99">
          <mxGeometry x="60" y="410" width="120" height="50" as="geometry" />
        </mxCell>
        <mxCell id="ok139ALbJn9GpQchz6-Z-165" value="no" style="edgeStyle=orthogonalEdgeStyle;html=1;align=left;verticalAlign=bottom;endArrow=open;endSize=8;strokeColor=#ff0000;" edge="1" source="ok139ALbJn9GpQchz6-Z-164" parent="ok139ALbJn9GpQchz6-Z-99">
          <mxGeometry x="-1" relative="1" as="geometry">
            <mxPoint x="250" y="490" as="targetPoint" />
            <Array as="points">
              <mxPoint x="250" y="435" />
              <mxPoint x="250" y="440" />
            </Array>
          </mxGeometry>
        </mxCell>
        <mxCell id="ok139ALbJn9GpQchz6-Z-166" value="yes" style="edgeStyle=orthogonalEdgeStyle;html=1;align=left;verticalAlign=top;endArrow=open;endSize=8;strokeColor=#ff0000;" edge="1" source="ok139ALbJn9GpQchz6-Z-164" parent="ok139ALbJn9GpQchz6-Z-99">
          <mxGeometry x="-1" relative="1" as="geometry">
            <mxPoint x="123" y="540" as="targetPoint" />
            <Array as="points">
              <mxPoint x="123" y="490" />
              <mxPoint x="123" y="520" />
            </Array>
          </mxGeometry>
        </mxCell>
        <mxCell id="ok139ALbJn9GpQchz6-Z-168" value="修改订单状态" style="" vertex="1" parent="ok139ALbJn9GpQchz6-Z-99">
          <mxGeometry x="70" y="540" width="110" height="50" as="geometry" />
        </mxCell>
        <mxCell id="ok139ALbJn9GpQchz6-Z-169" value="结束" style="rhombus;whiteSpace=wrap;html=1;" vertex="1" parent="ok139ALbJn9GpQchz6-Z-99">
          <mxGeometry x="60" y="630" width="100" height="60" as="geometry" />
        </mxCell>
        <mxCell id="ok139ALbJn9GpQchz6-Z-175" value="修改被订单数据" style="" vertex="1" parent="ok139ALbJn9GpQchz6-Z-99">
          <mxGeometry x="190" y="600" width="110" height="50" as="geometry" />
        </mxCell>
        <mxCell id="ok139ALbJn9GpQchz6-Z-191" value="添加新的订单信息" style="" vertex="1" parent="ok139ALbJn9GpQchz6-Z-99">
          <mxGeometry x="190" y="680" width="110" height="50" as="geometry" />
        </mxCell>
        <mxCell id="ok139ALbJn9GpQchz6-Z-193" value="" style="endArrow=open;strokeColor=#FF0000;endFill=1;rounded=0;edgeStyle=orthogonalEdgeStyle;entryX=0.5;entryY=0;entryDx=0;entryDy=0;" edge="1" parent="ok139ALbJn9GpQchz6-Z-99" target="ok139ALbJn9GpQchz6-Z-169">
          <mxGeometry relative="1" as="geometry">
            <mxPoint x="109.28999999999996" y="590" as="sourcePoint" />
            <mxPoint x="109.28999999999996" y="620" as="targetPoint" />
          </mxGeometry>
        </mxCell>
        <mxCell id="ok139ALbJn9GpQchz6-Z-196" value="" style="endArrow=open;strokeColor=#FF0000;endFill=1;rounded=0;edgeStyle=orthogonalEdgeStyle;exitX=0;exitY=0.5;exitDx=0;exitDy=0;entryX=1;entryY=0;entryDx=0;entryDy=0;" edge="1" parent="ok139ALbJn9GpQchz6-Z-99" source="ok139ALbJn9GpQchz6-Z-175" target="ok139ALbJn9GpQchz6-Z-169">
          <mxGeometry relative="1" as="geometry">
            <mxPoint x="-155.42000000000007" y="480" as="sourcePoint" />
            <mxPoint x="-155.42000000000007" y="510" as="targetPoint" />
          </mxGeometry>
        </mxCell>
        <mxCell id="ok139ALbJn9GpQchz6-Z-199" value="" style="endArrow=open;strokeColor=#FF0000;endFill=1;rounded=0;edgeStyle=orthogonalEdgeStyle;" edge="1" parent="ok139ALbJn9GpQchz6-Z-99">
          <mxGeometry relative="1" as="geometry">
            <mxPoint x="244.28999999999996" y="650" as="sourcePoint" />
            <mxPoint x="244.28999999999996" y="680" as="targetPoint" />
          </mxGeometry>
        </mxCell>
        <mxCell id="ok139ALbJn9GpQchz6-Z-200" value="判断是否成功" style="rhombus;whiteSpace=wrap;html=1;fillColor=#ffffc0;strokeColor=#ff0000;labelBackgroundColor=none;" vertex="1" parent="ok139ALbJn9GpQchz6-Z-99">
          <mxGeometry x="130" y="100" width="110" height="70" as="geometry" />
        </mxCell>
        <mxCell id="ok139ALbJn9GpQchz6-Z-201" value="no" style="edgeStyle=orthogonalEdgeStyle;html=1;align=left;verticalAlign=bottom;endArrow=open;endSize=8;strokeColor=#ff0000;" edge="1" source="ok139ALbJn9GpQchz6-Z-200" parent="ok139ALbJn9GpQchz6-Z-99">
          <mxGeometry x="-1" relative="1" as="geometry">
            <mxPoint x="330" y="210" as="targetPoint" />
            <Array as="points">
              <mxPoint x="340" y="135" />
              <mxPoint x="340" y="135" />
            </Array>
          </mxGeometry>
        </mxCell>
        <mxCell id="ok139ALbJn9GpQchz6-Z-202" value="yes" style="edgeStyle=orthogonalEdgeStyle;html=1;align=left;verticalAlign=top;endArrow=open;endSize=8;strokeColor=#ff0000;" edge="1" source="ok139ALbJn9GpQchz6-Z-200" parent="ok139ALbJn9GpQchz6-Z-99">
          <mxGeometry x="-1" relative="1" as="geometry">
            <mxPoint x="185" y="210" as="targetPoint" />
            <Array as="points">
              <mxPoint x="185" y="200" />
            </Array>
          </mxGeometry>
        </mxCell>
        <mxCell id="ok139ALbJn9GpQchz6-Z-205" value="不处理" style="" vertex="1" parent="ok139ALbJn9GpQchz6-Z-99">
          <mxGeometry x="140" y="210" width="110" height="50" as="geometry" />
        </mxCell>
        <mxCell id="ok139ALbJn9GpQchz6-Z-206" value="重发支付请求" style="" vertex="1" parent="ok139ALbJn9GpQchz6-Z-99">
          <mxGeometry x="280" y="210" width="110" height="50" as="geometry" />
        </mxCell>
        <mxCell id="ok139ALbJn9GpQchz6-Z-125" value="支付API" style="swimlane;whiteSpace=wrap" vertex="1" parent="1">
          <mxGeometry x="990" y="-4270" width="170" height="760" as="geometry" />
        </mxCell>
        <mxCell id="ok139ALbJn9GpQchz6-Z-126" value="判断币种" style="" vertex="1" parent="ok139ALbJn9GpQchz6-Z-125">
          <mxGeometry x="40" y="60" width="110" height="50" as="geometry" />
        </mxCell>
        <mxCell id="ok139ALbJn9GpQchz6-Z-209" value="校验数据" style="" vertex="1" parent="ok139ALbJn9GpQchz6-Z-125">
          <mxGeometry x="40" y="140" width="110" height="50" as="geometry" />
        </mxCell>
        <mxCell id="ok139ALbJn9GpQchz6-Z-213" value="选择API发起支付" style="" vertex="1" parent="ok139ALbJn9GpQchz6-Z-125">
          <mxGeometry x="40" y="290" width="110" height="50" as="geometry" />
        </mxCell>
        <mxCell id="ok139ALbJn9GpQchz6-Z-214" value="结束" style="rhombus;whiteSpace=wrap;html=1;" vertex="1" parent="ok139ALbJn9GpQchz6-Z-125">
          <mxGeometry x="45" y="440" width="100" height="60" as="geometry" />
        </mxCell>
        <mxCell id="ok139ALbJn9GpQchz6-Z-224" value="" style="edgeStyle=orthogonalEdgeStyle;rounded=0;orthogonalLoop=1;jettySize=auto;html=1;" edge="1" parent="ok139ALbJn9GpQchz6-Z-125" source="ok139ALbJn9GpQchz6-Z-217" target="ok139ALbJn9GpQchz6-Z-213">
          <mxGeometry relative="1" as="geometry" />
        </mxCell>
        <mxCell id="ok139ALbJn9GpQchz6-Z-217" value="签名数据" style="" vertex="1" parent="ok139ALbJn9GpQchz6-Z-125">
          <mxGeometry x="40" y="220" width="110" height="50" as="geometry" />
        </mxCell>
        <mxCell id="ok139ALbJn9GpQchz6-Z-216" value="" style="endArrow=open;strokeColor=#FF0000;endFill=1;rounded=0;edgeStyle=orthogonalEdgeStyle;" edge="1" parent="ok139ALbJn9GpQchz6-Z-125">
          <mxGeometry relative="1" as="geometry">
            <mxPoint x="94.40999999999985" y="110" as="sourcePoint" />
            <mxPoint x="94.40999999999985" y="140" as="targetPoint" />
          </mxGeometry>
        </mxCell>
        <mxCell id="ok139ALbJn9GpQchz6-Z-131" value="扫块API" style="swimlane;whiteSpace=wrap" vertex="1" parent="1">
          <mxGeometry x="1160" y="-4270" width="170" height="760" as="geometry" />
        </mxCell>
        <mxCell id="ok139ALbJn9GpQchz6-Z-132" value="扫块，发现交易" style="" vertex="1" parent="ok139ALbJn9GpQchz6-Z-131">
          <mxGeometry x="40" y="410" width="110" height="50" as="geometry" />
        </mxCell>
        <mxCell id="ok139ALbJn9GpQchz6-Z-142" value="" style="endArrow=open;strokeColor=#FF0000;endFill=1;rounded=0;edgeStyle=orthogonalEdgeStyle;exitX=1;exitY=0.5;exitDx=0;exitDy=0;entryX=0;entryY=0.5;entryDx=0;entryDy=0;" edge="1" parent="1" source="ok139ALbJn9GpQchz6-Z-137" target="ok139ALbJn9GpQchz6-Z-102">
          <mxGeometry relative="1" as="geometry">
            <mxPoint x="665" y="-4100" as="sourcePoint" />
            <mxPoint x="530" y="-4230" as="targetPoint" />
            <Array as="points">
              <mxPoint x="530" y="-3905" />
              <mxPoint x="530" y="-4195" />
            </Array>
          </mxGeometry>
        </mxCell>
        <mxCell id="ok139ALbJn9GpQchz6-Z-153" value="" style="endArrow=open;strokeColor=#FF0000;endFill=1;rounded=0;edgeStyle=orthogonalEdgeStyle;entryX=1;entryY=0.5;entryDx=0;entryDy=0;exitX=0;exitY=0.5;exitDx=0;exitDy=0;" edge="1" parent="1" source="ok139ALbJn9GpQchz6-Z-169" target="ok139ALbJn9GpQchz6-Z-138">
          <mxGeometry relative="1" as="geometry">
            <mxPoint x="600" y="-3600" as="sourcePoint" />
            <mxPoint x="650" y="-3765" as="targetPoint" />
            <Array as="points">
              <mxPoint x="600" y="-3610" />
              <mxPoint x="600" y="-3825" />
            </Array>
          </mxGeometry>
        </mxCell>
        <mxCell id="ok139ALbJn9GpQchz6-Z-167" value="" style="endArrow=open;strokeColor=#FF0000;endFill=1;rounded=0;edgeStyle=orthogonalEdgeStyle;exitX=0.341;exitY=-0.013;exitDx=0;exitDy=0;exitPerimeter=0;" edge="1" parent="1" source="ok139ALbJn9GpQchz6-Z-132">
          <mxGeometry relative="1" as="geometry">
            <mxPoint x="1137.5" y="-3850" as="sourcePoint" />
            <mxPoint x="700" y="-3850" as="targetPoint" />
            <Array as="points">
              <mxPoint x="1238" y="-3900" />
              <mxPoint x="700" y="-3900" />
            </Array>
          </mxGeometry>
        </mxCell>
        <mxCell id="ok139ALbJn9GpQchz6-Z-172" value="&lt;pre style=&quot;font-size: 11px&quot;&gt;判断是否为顶单&lt;/pre&gt;" style="rhombus;whiteSpace=wrap;html=1;fillColor=#ffffc0;strokeColor=#ff0000;labelBackgroundColor=none;" vertex="1" parent="1">
          <mxGeometry x="760" y="-3800" width="130" height="80" as="geometry" />
        </mxCell>
        <mxCell id="ok139ALbJn9GpQchz6-Z-173" value="no" style="edgeStyle=orthogonalEdgeStyle;html=1;align=left;verticalAlign=bottom;endArrow=open;endSize=8;strokeColor=#ff0000;entryX=1;entryY=0.5;entryDx=0;entryDy=0;" edge="1" source="ok139ALbJn9GpQchz6-Z-172" parent="1" target="ok139ALbJn9GpQchz6-Z-191">
          <mxGeometry x="-1" relative="1" as="geometry">
            <mxPoint x="950" y="-3550" as="targetPoint" />
            <Array as="points">
              <mxPoint x="950" y="-3760" />
              <mxPoint x="950" y="-3565" />
            </Array>
          </mxGeometry>
        </mxCell>
        <mxCell id="ok139ALbJn9GpQchz6-Z-174" value="yes" style="edgeStyle=orthogonalEdgeStyle;html=1;align=left;verticalAlign=top;endArrow=open;endSize=8;strokeColor=#ff0000;" edge="1" source="ok139ALbJn9GpQchz6-Z-172" parent="1">
          <mxGeometry x="-1" relative="1" as="geometry">
            <mxPoint x="825" y="-3670" as="targetPoint" />
            <Array as="points">
              <mxPoint x="825" y="-3680" />
            </Array>
          </mxGeometry>
        </mxCell>
        <mxCell id="ok139ALbJn9GpQchz6-Z-197" value="" style="endArrow=open;strokeColor=#FF0000;endFill=1;rounded=0;edgeStyle=orthogonalEdgeStyle;" edge="1" parent="1">
          <mxGeometry relative="1" as="geometry">
            <mxPoint x="760" y="-3560" as="sourcePoint" />
            <mxPoint x="725" y="-3590" as="targetPoint" />
          </mxGeometry>
        </mxCell>
        <mxCell id="ok139ALbJn9GpQchz6-Z-207" value="" style="endArrow=open;strokeColor=#FF0000;endFill=1;rounded=0;edgeStyle=orthogonalEdgeStyle;exitX=1;exitY=0;exitDx=0;exitDy=0;" edge="1" parent="1" source="ok139ALbJn9GpQchz6-Z-206">
          <mxGeometry relative="1" as="geometry">
            <mxPoint x="730" y="-4185.42" as="sourcePoint" />
            <mxPoint x="1030" y="-4187" as="targetPoint" />
            <Array as="points">
              <mxPoint x="970" y="-4187" />
            </Array>
          </mxGeometry>
        </mxCell>
        <mxCell id="ok139ALbJn9GpQchz6-Z-218" value="" style="endArrow=open;strokeColor=#FF0000;endFill=1;rounded=0;edgeStyle=orthogonalEdgeStyle;entryX=0.5;entryY=0;entryDx=0;entryDy=0;" edge="1" parent="1">
          <mxGeometry relative="1" as="geometry">
            <mxPoint x="1085" y="-4070" as="sourcePoint" />
            <mxPoint x="1084.9999999999995" y="-4050" as="targetPoint" />
          </mxGeometry>
        </mxCell>
        <mxCell id="ok139ALbJn9GpQchz6-Z-219" value="" style="endArrow=open;strokeColor=#FF0000;endFill=1;rounded=0;edgeStyle=orthogonalEdgeStyle;entryX=0.5;entryY=0;entryDx=0;entryDy=0;" edge="1" parent="1" target="ok139ALbJn9GpQchz6-Z-214">
          <mxGeometry relative="1" as="geometry">
            <mxPoint x="1085" y="-3930" as="sourcePoint" />
            <mxPoint x="1094.4099999999999" y="-4120" as="targetPoint" />
          </mxGeometry>
        </mxCell>
        <mxCell id="ok139ALbJn9GpQchz6-Z-222" value="" style="endArrow=open;strokeColor=#FF0000;endFill=1;rounded=0;edgeStyle=orthogonalEdgeStyle;entryX=0.5;entryY=0;entryDx=0;entryDy=0;" edge="1" parent="1">
          <mxGeometry relative="1" as="geometry">
            <mxPoint x="1085.9999999999995" y="-4001" as="sourcePoint" />
            <mxPoint x="1085.9999999999995" y="-3981" as="targetPoint" />
          </mxGeometry>
        </mxCell>
        <mxCell id="ok139ALbJn9GpQchz6-Z-223" value="" style="endArrow=open;strokeColor=#FF0000;endFill=1;rounded=0;edgeStyle=orthogonalEdgeStyle;exitX=0;exitY=0.5;exitDx=0;exitDy=0;" edge="1" parent="1">
          <mxGeometry relative="1" as="geometry">
            <mxPoint x="1040" y="-3800" as="sourcePoint" />
            <mxPoint x="725" y="-4180" as="targetPoint" />
            <Array as="points">
              <mxPoint x="1025" y="-3800" />
              <mxPoint x="1025" y="-4180" />
            </Array>
          </mxGeometry>
        </mxCell>
      </root>
    </mxGraphModel>
  </diagram>
</mxfile>
